<svg width="11" height="10" viewBox="0 0 11 10" fill="none" xmlns="http://www.w3.org/2000/svg">
<path fill-rule="evenodd" clip-rule="evenodd" d="M9.3275 9.34438V9.34323L9.33748 9.31856L11 0.645426V0.617892C11 0.401637 10.9224 0.212916 10.755 0.0999129C10.6081 0.000676671 10.439 -0.00620672 10.3204 0.0029712C10.2099 0.0133056 10.101 0.036394 9.9955 0.0718056C9.95053 0.0868086 9.90614 0.103648 9.86246 0.122284L9.85525 0.125152L0.58637 3.88753L0.583598 3.88867C0.555418 3.89863 0.527836 3.91032 0.500999 3.92367C0.435079 3.95431 0.371833 3.99077 0.311962 4.03265C0.192775 4.11755 -0.0339576 4.31717 0.00429312 4.63381C0.0358916 4.89652 0.210515 5.06287 0.328593 5.14949C0.39829 5.20003 0.473223 5.24236 0.552 5.27569L0.569739 5.28372L0.575283 5.28544L0.579163 5.28716L2.20122 5.85218C2.19567 5.95715 2.20565 6.06441 2.23282 6.17053L3.04495 9.35929C3.08932 9.53311 3.18519 9.68818 3.31909 9.80273C3.453 9.91728 3.61822 9.98555 3.79155 9.99795C3.96488 10.0104 4.1376 9.96627 4.28548 9.87188C4.43335 9.7775 4.54893 9.63756 4.616 9.47172L5.88438 8.06864L8.06245 9.79639L8.0935 9.81015C8.2914 9.89964 8.476 9.92775 8.64508 9.90423C8.81416 9.88014 8.94832 9.80671 9.04921 9.72354C9.16591 9.62564 9.25892 9.50092 9.32085 9.35929L9.32528 9.34954L9.32695 9.3461L9.3275 9.34438ZM3.03664 5.95141C3.02764 5.91603 3.02978 5.8786 3.04274 5.84456C3.0557 5.81052 3.0788 5.78165 3.1087 5.76212L8.6085 2.14831C8.6085 2.14831 8.93224 1.94468 8.9206 2.14831C8.9206 2.14831 8.97825 2.18388 8.80474 2.3508C8.64065 2.50969 4.88487 6.26174 4.50458 6.64148C4.48343 6.66272 4.46862 6.6898 4.46189 6.71949L3.84877 9.14017L3.03664 5.95084V5.95141Z" fill="url(#paint0_linear_302_265)"/>
<defs>
<linearGradient id="paint0_linear_302_265" x1="1.13235" y1="7.75735" x2="9.34541" y2="1.47077" gradientUnits="userSpaceOnUse">
<stop stop-color="#4071B3"/>
<stop offset="1" stop-color="#28BBC0"/>
</linearGradient>
</defs>
</svg>
