<svg width="16" height="10" viewBox="0 0 16 10" fill="none" xmlns="http://www.w3.org/2000/svg">
<path fill-rule="evenodd" clip-rule="evenodd" d="M15.6234 0.694444C15.742 0.302778 15.6234 0.0180554 15.0984 0.0180554H13.3527C12.9123 0.0180554 12.709 0.267361 12.5903 0.534028C12.5903 0.534028 11.6923 2.81181 10.4383 4.28854C10.0317 4.71562 9.84535 4.85799 9.62501 4.85799C9.50635 4.85799 9.35368 4.71562 9.35368 4.32431V0.676042C9.35368 0.213542 9.21834 0 8.84534 0H6.10001C5.82867 0 5.65934 0.213542 5.65934 0.427083C5.65934 0.871875 6.28634 0.978819 6.35401 2.22431V4.93056C6.35401 5.51771 6.25401 5.625 6.03201 5.625C5.43901 5.625 3.99867 3.32951 3.13467 0.713889C2.96667 0.195833 2.796 0 2.35534 0H0.593001C0.0846668 0 0 0.248958 0 0.515972C0 0.996528 0.593001 3.41632 2.762 6.6191C4.20234 8.8066 6.25267 9.98229 8.09968 9.98229C9.21834 9.98229 9.35368 9.71528 9.35368 9.27049V7.61562C9.35368 7.08194 9.45535 6.99306 9.81135 6.99306C10.0653 6.99306 10.523 7.13507 11.5567 8.18507C12.7427 9.43056 12.946 10 13.607 10H15.3524C15.8607 10 16.098 9.73299 15.9624 9.21701C15.81 8.70104 15.2337 7.95382 14.488 7.06424C14.0814 6.56632 13.4714 6.01458 13.285 5.74757C13.031 5.39167 13.0987 5.24931 13.285 4.92917C13.268 4.92917 15.4034 1.76181 15.6234 0.693056" fill="url(#paint0_linear_302_264)"/>
<defs>
<linearGradient id="paint0_linear_302_264" x1="1.64706" y1="7.75735" x2="10.1065" y2="-1.66105" gradientUnits="userSpaceOnUse">
<stop stop-color="#4071B3"/>
<stop offset="1" stop-color="#28BBC0"/>
</linearGradient>
</defs>
</svg>
