<svg width="16" height="10" viewBox="0 0 16 10" fill="none" xmlns="http://www.w3.org/2000/svg">
<path d="M15.665 1.569C15.5744 1.26621 15.3979 0.992075 15.1544 0.775743C14.9039 0.552759 14.597 0.393253 14.2625 0.31228C13.0107 0.00309731 7.99534 0.00309738 7.99534 0.00309738C5.9045 -0.0191934 3.81418 0.0788469 1.73618 0.296665C1.40168 0.383619 1.09531 0.546689 0.844298 0.771371C0.597664 0.993733 0.419022 1.26794 0.325701 1.56838C0.101526 2.70001 -0.00739287 3.84905 0.0004114 5C-0.00758752 6.14991 0.101065 7.29857 0.325701 8.43162C0.417022 8.73081 0.594998 9.00376 0.842298 9.22425C1.0896 9.44474 1.39756 9.60402 1.73618 9.68834C3.00467 9.9969 7.99534 9.9969 7.99534 9.9969C10.0888 10.0192 12.1818 9.92118 14.2625 9.70333C14.597 9.62236 14.9039 9.46285 15.1544 9.23987C15.3978 9.02358 15.5741 8.74941 15.6643 8.44661C15.8943 7.31541 16.0062 6.16589 15.9983 5.01436C16.0156 3.85796 15.9039 2.70365 15.665 1.569ZM6.40088 7.13867V2.86195L10.5737 5.00062L6.40088 7.13867Z" fill="url(#paint0_linear_302_246)"/>
<defs>
<linearGradient id="paint0_linear_302_246" x1="1.64706" y1="7.75735" x2="10.1065" y2="-1.66105" gradientUnits="userSpaceOnUse">
<stop stop-color="#4071B3"/>
<stop offset="1" stop-color="#28BBC0"/>
</linearGradient>
</defs>
</svg>
