<svg width="83" height="84" viewBox="0 0 83 84" fill="none" xmlns="http://www.w3.org/2000/svg">
<circle cx="41.25" cy="42" r="40" fill="#F5F5F7" stroke="url(#paint0_linear_305_475)" stroke-width="2.5"/>
<path d="M29.3249 58.4998V54.5848L41.8349 42.7048C42.8849 41.7148 43.6649 40.8448 44.1749 40.0948C44.6849 39.3448 45.0149 38.6548 45.1649 38.0248C45.3449 37.3648 45.4349 36.7498 45.4349 36.1798C45.4349 34.7398 44.9399 33.6298 43.9499 32.8498C42.9599 32.0398 41.5049 31.6348 39.5849 31.6348C38.0549 31.6348 36.6599 31.9048 35.3999 32.4448C34.1699 32.9848 33.1049 33.8098 32.2049 34.9198L28.1099 31.7698C29.3399 30.1198 30.9899 28.8448 33.0599 27.9448C35.1599 27.0148 37.4999 26.5498 40.0799 26.5498C42.3599 26.5498 44.3399 26.9248 46.0199 27.6748C47.7299 28.3948 49.0349 29.4298 49.9349 30.7798C50.8649 32.1298 51.3299 33.7348 51.3299 35.5948C51.3299 36.6148 51.1949 37.6348 50.9249 38.6548C50.6549 39.6448 50.1449 40.6948 49.3949 41.8048C48.6449 42.9148 47.5499 44.1598 46.1099 45.5398L35.3549 55.7548L34.1399 53.5498H52.5449V58.4998H29.3249Z" fill="url(#paint1_linear_305_475)"/>
<defs>
<linearGradient id="paint0_linear_305_475" x1="8.49265" y1="64.7482" x2="74.3107" y2="18.9485" gradientUnits="userSpaceOnUse">
<stop stop-color="#4071B3"/>
<stop offset="1" stop-color="#28BBC0"/>
</linearGradient>
<linearGradient id="paint1_linear_305_475" x1="30.6252" y1="51.3345" x2="53.1728" y2="39.3352" gradientUnits="userSpaceOnUse">
<stop stop-color="#4071B3"/>
<stop offset="1" stop-color="#28BBC0"/>
</linearGradient>
</defs>
</svg>
