<svg width="83" height="83" viewBox="0 0 83 83" fill="none" xmlns="http://www.w3.org/2000/svg">
<circle cx="41.25" cy="41.5" r="40" fill="#F5F5F7" stroke="url(#paint0_linear_305_465)" stroke-width="2.5"/>
<path d="M39.6592 58.45C37.4392 58.45 35.2642 58.135 33.1342 57.505C31.0342 56.845 29.2642 55.945 27.8242 54.805L30.3442 50.26C31.4842 51.19 32.8642 51.94 34.4842 52.51C36.1042 53.08 37.7992 53.365 39.5692 53.365C41.6692 53.365 43.3042 52.945 44.4742 52.105C45.6442 51.235 46.2292 50.065 46.2292 48.595C46.2292 47.155 45.6892 46.015 44.6092 45.175C43.5292 44.335 41.7892 43.915 39.3892 43.915H36.5092V39.91L45.5092 29.2L46.2742 31.405H29.3542V26.5H50.8192V30.415L41.8192 41.125L38.7592 39.325H40.5142C44.3842 39.325 47.2792 40.195 49.1992 41.935C51.1492 43.645 52.1242 45.85 52.1242 48.55C52.1242 50.32 51.6742 51.955 50.7742 53.455C49.8742 54.955 48.4942 56.17 46.6342 57.1C44.8042 58 42.4792 58.45 39.6592 58.45Z" fill="url(#paint1_linear_305_465)"/>
<defs>
<linearGradient id="paint0_linear_305_465" x1="8.49265" y1="64.2482" x2="74.3107" y2="18.4485" gradientUnits="userSpaceOnUse">
<stop stop-color="#4071B3"/>
<stop offset="1" stop-color="#28BBC0"/>
</linearGradient>
<linearGradient id="paint1_linear_305_465" x1="30.3257" y1="51.2847" x2="52.8033" y2="39.3887" gradientUnits="userSpaceOnUse">
<stop stop-color="#4071B3"/>
<stop offset="1" stop-color="#28BBC0"/>
</linearGradient>
</defs>
</svg>
