<svg width="83" height="83" viewBox="0 0 83 83" fill="none" xmlns="http://www.w3.org/2000/svg">
<circle cx="41.25" cy="41.5" r="40" fill="white" stroke="url(#paint0_linear_305_470)" stroke-width="2.5"/>
<path d="M40.5303 58.45C38.3103 58.45 36.1353 58.135 34.0053 57.505C31.9053 56.845 30.1353 55.945 28.6953 54.805L31.1703 50.26C32.3103 51.19 33.6903 51.94 35.3103 52.51C36.9603 53.08 38.6703 53.365 40.4403 53.365C42.5103 53.365 44.1303 52.93 45.3003 52.06C46.5003 51.19 47.1003 50.02 47.1003 48.55C47.1003 47.56 46.8453 46.69 46.3353 45.94C45.8553 45.19 44.9853 44.62 43.7253 44.23C42.4953 43.84 40.8003 43.645 38.6403 43.645H31.0353L32.6553 26.5H51.1503V31.405H34.8153L37.8753 28.615L36.6603 41.44L33.6003 38.695H39.9453C43.0653 38.695 45.5703 39.115 47.4603 39.955C49.3803 40.765 50.7753 41.905 51.6453 43.375C52.5453 44.815 52.9953 46.465 52.9953 48.325C52.9953 50.155 52.5453 51.835 51.6453 53.365C50.7453 54.895 49.3653 56.125 47.5053 57.055C45.6753 57.985 43.3503 58.45 40.5303 58.45Z" fill="url(#paint1_linear_305_470)"/>
<defs>
<linearGradient id="paint0_linear_305_470" x1="8.49265" y1="64.2482" x2="74.3107" y2="18.4485" gradientUnits="userSpaceOnUse">
<stop stop-color="#4071B3"/>
<stop offset="1" stop-color="#28BBC0"/>
</linearGradient>
<linearGradient id="paint1_linear_305_470" x1="31.1968" y1="51.2847" x2="53.6744" y2="39.3887" gradientUnits="userSpaceOnUse">
<stop stop-color="#4071B3"/>
<stop offset="1" stop-color="#28BBC0"/>
</linearGradient>
</defs>
</svg>
