<svg width="200" height="253" viewBox="0 0 200 253" fill="none" xmlns="http://www.w3.org/2000/svg">
<path d="M44.6687 245.013L44.6796 245.016C61.5953 249.46 78.6309 251.683 95.785 251.683C119.268 251.683 138.584 247.943 153.695 240.42L153.699 240.418C169.011 232.678 180.359 222.689 187.697 210.434L187.7 210.429C195.021 197.966 198.683 184.441 198.683 169.865C198.683 155.298 195.26 142.236 188.401 130.697C181.522 119.126 170.51 110.066 155.426 103.495C140.551 96.6791 120.891 93.2934 96.4875 93.2934H77.0662L81.1004 48.1462H182.896H183.579V47.4635V2V1.31726H182.896H32.9104H32.2874L32.2305 1.93761L19.5854 139.727L19.517 140.472H20.2652H83.1398C98.1008 140.472 109.612 141.754 117.71 144.288L117.715 144.289C126.066 146.83 131.753 150.493 134.909 155.207C138.107 159.983 139.712 165.444 139.712 171.614C139.712 181.416 135.723 189.014 127.715 194.481C119.673 199.972 108.585 202.755 94.3799 202.755C81.8074 202.755 69.3494 200.785 57.0036 196.843C44.8883 192.899 34.1825 187.567 24.8799 180.852L24.2383 180.389L23.8741 181.092L1.39386 224.457L1.11925 224.987L1.60742 225.33C13.6238 233.775 27.9814 240.333 44.6687 245.013Z" fill="#F5F5F7" stroke="url(#paint0_linear_305_646)" stroke-width="1.36549"/>
<defs>
<linearGradient id="paint0_linear_305_646" x1="22.1765" y1="195.158" x2="200.699" y2="97.3743" gradientUnits="userSpaceOnUse">
<stop stop-color="#4071B3"/>
<stop offset="1" stop-color="#28BBC0"/>
</linearGradient>
</defs>
</svg>
