<svg width="838" height="89" viewBox="0 0 838 89" fill="none" xmlns="http://www.w3.org/2000/svg">
<path d="M0.333333 50.7547C0.333333 52.2275 1.52724 53.4214 3 53.4214C4.47276 53.4214 5.66667 52.2275 5.66667 50.7547C5.66667 49.2819 4.47276 48.088 3 48.088C1.52724 48.088 0.333333 49.2819 0.333333 50.7547ZM524.938 41.7494L525.114 42.2176L524.938 41.7494ZM835.862 50.4847C836.127 50.561 836.404 50.4078 836.48 50.1424L837.725 45.8178C837.801 45.5524 837.648 45.2754 837.382 45.199C837.117 45.1227 836.84 45.2759 836.763 45.5413L835.658 49.3854L831.814 48.2796C831.548 48.2033 831.271 48.3565 831.195 48.6219C831.119 48.8873 831.272 49.1643 831.537 49.2406L835.862 50.4847ZM2.90381 51.2454C4.4035 51.5394 5.90204 51.8337 7.39947 52.1283L7.59248 51.1471C6.09486 50.8525 4.59612 50.5581 3.09619 50.264L2.90381 51.2454ZM16.3712 53.8978C19.3679 54.4902 22.3605 55.0828 25.3495 55.6749L25.5438 54.6939C22.5548 54.1018 19.562 53.5092 16.5651 52.9168L16.3712 53.8978ZM34.3173 57.4512C37.3138 58.0445 40.3071 58.6365 43.2976 59.2266L43.4912 58.2455C40.5009 57.6555 37.5079 57.0635 34.5115 56.4703L34.3173 57.4512ZM52.2725 60.9925C55.2678 61.5799 58.2607 62.1646 61.2518 62.7459L61.4426 61.7643C58.4522 61.1831 55.4598 60.5985 52.4649 60.0112L52.2725 60.9925ZM70.2365 64.482C73.2324 65.0572 76.2269 65.6283 79.2203 66.1945L79.4061 65.2119C76.4137 64.6459 73.4202 64.075 70.4251 63.4999L70.2365 64.482ZM88.2173 67.881C91.217 68.438 94.2162 68.9893 97.2153 69.5342L97.3941 68.5503C94.3964 68.0057 91.3984 67.4546 88.3998 66.8978L88.2173 67.881ZM106.222 71.1504C109.227 71.6825 112.231 72.2074 115.237 72.7242L115.406 71.7387C112.403 71.2221 109.4 70.6975 106.397 70.1657L106.222 71.1504ZM124.259 74.2508C127.268 74.7512 130.279 75.243 133.291 75.7252L133.449 74.7378C130.439 74.2559 127.43 73.7645 124.423 73.2643L124.259 74.2508ZM142.332 77.1426C145.346 77.6049 148.363 78.057 151.383 78.498L151.527 77.5086C148.51 77.0678 145.496 76.6161 142.483 76.1541L142.332 77.1426ZM160.443 79.7867C163.464 80.2045 166.488 80.6107 169.516 81.0043L169.645 80.0127C166.62 79.6194 163.598 79.2136 160.58 78.7961L160.443 79.7867ZM178.594 82.1452C181.621 82.5122 184.652 82.8662 187.687 83.2062L187.799 82.2124C184.766 81.8727 181.738 81.5192 178.714 81.1525L178.594 82.1452ZM196.786 84.1817C199.817 84.4919 202.854 84.7877 205.895 85.0681L205.987 84.0724C202.949 83.7922 199.916 83.4968 196.888 83.1869L196.786 84.1817ZM215.018 85.8617C218.053 86.1096 221.093 86.3416 224.139 86.5572L224.209 85.5597C221.167 85.3444 218.13 85.1126 215.099 84.865L215.018 85.8617ZM233.282 87.1528C236.319 87.3334 239.363 87.497 242.414 87.6429L242.462 86.644C239.415 86.4983 236.375 86.3349 233.341 86.1545L233.282 87.1528ZM251.562 88.0259C254.605 88.135 257.656 88.2259 260.713 88.298L260.737 87.2982C257.683 87.2263 254.637 87.1355 251.598 87.0265L251.562 88.0259ZM269.861 88.4564C272.909 88.49 275.964 88.5044 279.028 88.4988L279.026 87.4988C275.967 87.5044 272.915 87.49 269.872 87.4565L269.861 88.4564ZM288.167 88.423C291.214 88.3779 294.269 88.3126 297.334 88.2265L297.306 87.2269C294.246 87.3128 291.195 87.378 288.152 87.4231L288.167 88.423ZM306.469 87.9087C309.51 87.7825 312.56 87.6354 315.619 87.4669L315.564 86.4684C312.509 86.6367 309.464 86.7835 306.428 86.9096L306.469 87.9087ZM324.754 86.9009C327.786 86.6922 330.827 86.462 333.878 86.2098L333.796 85.2132C330.75 85.4651 327.713 85.6949 324.685 85.9032L324.754 86.9009ZM343.007 85.3916C346.028 85.0998 349.058 84.7861 352.098 84.4499L351.988 83.4559C348.953 83.7916 345.927 84.1049 342.911 84.3962L343.007 85.3916ZM361.214 83.3776C364.221 83.0027 367.237 82.6057 370.264 82.1858L370.127 81.1953C367.104 81.6145 364.092 82.011 361.091 82.3853L361.214 83.3776ZM379.359 80.8599C382.35 80.4028 385.35 79.9232 388.362 79.4207L388.197 78.4343C385.19 78.9361 382.194 79.415 379.208 79.8714L379.359 80.8599ZM397.413 77.8463C400.391 77.3075 403.378 76.746 406.377 76.1614L406.185 75.1799C403.191 75.7636 400.208 76.3242 397.235 76.8623L397.413 77.8463ZM415.381 74.3429C418.342 73.7241 421.314 73.0826 424.297 72.418L424.08 71.4419C421.101 72.1056 418.134 72.7461 415.177 73.364L415.381 74.3429ZM433.252 70.3608C436.194 69.6644 439.148 68.9454 442.112 68.2033L441.869 67.2332C438.909 67.9743 435.96 68.6923 433.021 69.3877L433.252 70.3608ZM451.016 65.9135C453.937 65.1423 456.869 64.3487 459.812 63.5322L459.544 62.5686C456.605 63.3839 453.678 64.1765 450.76 64.9466L451.016 65.9135ZM468.666 61.016C471.563 60.1733 474.47 59.3083 477.389 58.4209L477.098 57.4641C474.183 58.3504 471.28 59.2142 468.387 60.0558L468.666 61.016ZM486.178 55.6903C489.055 54.7778 491.942 53.8433 494.84 52.8865L494.526 51.937C491.632 52.8925 488.748 53.8258 485.876 54.7372L486.178 55.6903ZM503.547 49.9555C506.408 48.9743 509.279 47.9715 512.16 46.9465L511.825 46.0044C508.947 47.028 506.08 48.0296 503.223 49.0096L503.547 49.9555ZM520.779 43.827C522.221 43.2961 523.666 42.7596 525.114 42.2176L524.763 41.2811C523.317 41.8225 521.874 42.3583 520.434 42.8886L520.779 43.827ZM525.114 42.2176C526.583 41.6674 528.046 41.1237 529.503 40.5864L529.157 39.6482C527.698 40.1861 526.234 40.7304 524.763 41.2811L525.114 42.2176ZM538.171 37.439C541.077 36.4008 543.957 35.3885 546.812 34.4018L546.485 33.4566C543.627 34.4445 540.743 35.458 537.835 36.4973L538.171 37.439ZM555.574 31.4273C558.495 30.4534 561.39 29.5068 564.258 28.5869L563.953 27.6347C561.081 28.5557 558.183 29.5035 555.257 30.4786L555.574 31.4273ZM573.099 25.8095C576.045 24.9036 578.962 24.0266 581.849 23.1777L581.567 22.2183C578.676 23.0683 575.755 23.9466 572.805 24.8537L573.099 25.8095ZM590.751 20.6243C593.728 19.7918 596.673 18.9899 599.587 18.218L599.331 17.2514C596.413 18.0245 593.463 18.8275 590.482 19.6612L590.751 20.6243ZM608.528 15.9181C611.541 15.1664 614.52 14.4475 617.464 13.7606L617.237 12.7867C614.288 13.4748 611.304 14.1949 608.286 14.9478L608.528 15.9181ZM626.417 11.7464C629.472 11.0851 632.487 10.4592 635.464 9.86757L635.269 8.88675C632.287 9.47946 629.266 10.1066 626.206 10.769L626.417 11.7464ZM644.427 8.16856C647.514 7.61207 650.557 7.09346 653.558 6.6116L653.4 5.62425C650.392 6.10713 647.342 6.62682 644.249 7.18442L644.427 8.16856ZM662.652 5.24458C665.715 4.81608 668.731 4.42692 671.701 4.0758L671.584 3.08272C668.607 3.43468 665.583 3.82475 662.514 4.25422L662.652 5.24458ZM680.914 3.09326C684.025 2.79821 687.082 2.54614 690.086 2.3354L690.016 1.33785C687.004 1.54917 683.938 1.80192 680.82 2.09773L680.914 3.09326ZM699.231 1.81274C702.347 1.67603 705.402 1.58519 708.398 1.53817L708.382 0.538292C705.377 0.585463 702.312 0.676585 699.187 0.813697L699.231 1.81274ZM717.627 1.53244C720.764 1.579 723.83 1.67524 726.828 1.81852L726.875 0.819656C723.867 0.675852 720.789 0.579265 717.642 0.532551L717.627 1.53244ZM735.998 2.4185C739.125 2.6798 742.17 2.99413 745.135 3.35799L745.256 2.36544C742.278 1.99997 739.221 1.68433 736.082 1.42198L735.998 2.4185ZM754.224 4.66596C757.328 5.18067 760.335 5.75175 763.248 6.37442L763.457 5.39652C760.529 4.77057 757.506 4.19662 754.388 3.67943L754.224 4.66596ZM772.175 8.51778C775.221 9.33279 778.151 10.2064 780.967 11.1317L781.279 10.1817C778.445 9.2504 775.497 8.37151 772.434 7.55176L772.175 8.51778ZM789.567 14.2516C792.515 15.4272 795.317 16.6611 797.978 17.9432L798.412 17.0423C795.73 15.7499 792.906 14.5067 789.938 13.3228L789.567 14.2516ZM806.088 22.2389C808.838 23.8384 811.403 25.4885 813.789 27.1734L814.366 26.3565C811.955 24.6544 809.365 22.9884 806.591 21.3744L806.088 22.2389ZM820.995 32.8126C823.428 34.9284 825.608 37.0696 827.547 39.2076L828.287 38.536C826.322 36.3677 824.113 34.1989 821.651 32.0579L820.995 32.8126ZM833.189 46.3737C834.069 47.6808 834.859 48.9739 835.562 50.2462L836.438 49.7621C835.719 48.4637 834.914 47.1459 834.019 45.8156L833.189 46.3737Z" fill="url(#paint0_linear_305_666)"/>
<defs>
<linearGradient id="paint0_linear_305_666" x1="88.75" y1="68.489" x2="110.481" y2="-76.2926" gradientUnits="userSpaceOnUse">
<stop stop-color="#4071B3"/>
<stop offset="1" stop-color="#28BBC0"/>
</linearGradient>
</defs>
</svg>
