<svg width="45" height="57" viewBox="0 0 45 57" fill="none" xmlns="http://www.w3.org/2000/svg">
<path fill-rule="evenodd" clip-rule="evenodd" d="M2.87109 57V47.2327L23.5512 27.3136L23.5601 27.3053C25.1271 25.8571 26.2243 24.6063 26.8992 23.5508C27.6076 22.443 28.0423 21.4882 28.251 20.6794L28.2583 20.6513L28.2669 20.6235C28.54 19.7415 28.6635 18.9701 28.6635 18.3002C28.6635 16.4622 28.061 15.2081 26.9477 14.3467L26.9296 14.3327L26.912 14.318C25.8032 13.3891 24.0364 12.8264 21.4165 12.8264C19.3686 12.8264 17.4796 13.2285 15.7356 14.0232C14.0836 14.7985 12.66 16.0113 11.4655 17.698L10.8132 18.619L0 11.5162L0.662129 10.5033C2.7957 7.23941 5.77199 4.67681 9.54809 2.80474C13.3432 0.923265 17.6849 0 22.5444 0C26.5788 0 30.1542 0.684903 33.2407 2.09373C36.3643 3.44566 38.8278 5.38941 40.5736 7.9457C42.3862 10.5257 43.2705 13.5876 43.2705 17.0732C43.2705 18.9144 43.0319 20.7517 42.5577 22.5827C42.1121 24.4486 41.1848 26.3678 39.8295 28.3365C38.5097 30.3264 36.5896 32.5133 34.1021 34.895C34.1019 34.8951 34.1022 34.8949 34.1021 34.895L24.1243 44.4803H45V57H2.87109ZM21.1634 45.6786L33.2975 34.0217C35.7539 31.6699 37.6088 29.5481 38.8621 27.6564C40.1655 25.7647 41.0177 23.9753 41.4188 22.2881C41.8699 20.5498 42.0955 18.8115 42.0955 17.0732C42.0955 13.801 41.2684 10.9891 39.614 8.63723C38.0098 6.2854 35.7289 4.4704 32.7711 3.19223C29.8635 1.86293 26.4546 1.19828 22.5444 1.19828C17.8321 1.19828 13.6712 2.093 10.0618 3.88244C6.84451 5.47745 4.26452 7.5802 2.3218 10.1907C2.08498 10.5089 1.85763 10.8347 1.63974 11.168L10.5129 16.9965C11.8164 15.1559 13.3955 13.801 15.2503 12.9319C17.1553 12.0627 19.2107 11.6282 21.4165 11.6282C24.1737 11.6282 26.2541 12.2161 27.6578 13.392C29.1116 14.5168 29.8385 16.1529 29.8385 18.3002C29.8385 19.1182 29.6881 20.0129 29.3873 20.9844C29.1366 21.9558 28.6353 23.0294 27.8834 24.2053C27.1314 25.3813 25.9533 26.7106 24.3491 28.1932L4.04604 47.7492V55.8017H43.8251V45.6786H21.1634Z" fill="url(#paint0_linear_302_219)"/>
<defs>
<linearGradient id="paint0_linear_302_219" x1="4.63235" y1="44.2169" x2="45.5638" y2="21.7309" gradientUnits="userSpaceOnUse">
<stop stop-color="#4071B3"/>
<stop offset="1" stop-color="#28BBC0"/>
</linearGradient>
</defs>
</svg>
