<svg width="45" height="57" viewBox="0 0 45 57" fill="none" xmlns="http://www.w3.org/2000/svg">
<path fill-rule="evenodd" clip-rule="evenodd" d="M10.472 55.5012L10.4646 55.4992C6.71275 54.4466 3.49103 52.9611 0.824975 51.0224L0 50.4225L5.87364 38.7466L6.9985 39.5702C8.90975 40.9697 11.148 42.0918 13.7263 42.9271C16.2959 43.7595 18.882 44.1736 21.4889 44.1736C24.4376 44.1736 26.6024 43.5854 28.1076 42.543C29.5608 41.5366 30.2498 40.217 30.2498 38.4697C30.2498 36.7878 29.6304 35.541 28.3754 34.6006C27.1174 33.658 24.904 33.0727 21.4889 33.0727H14.6833V23.2154L16.1708 21.5129L15.9699 21.3966H16.2724L24.1617 12.3663H2.98946V0H42.5701V9.70209L31.688 22.2221C34.8367 22.9822 37.4821 24.2763 39.5851 26.1428C43.1928 29.3447 45 33.4866 45 38.4697C45 41.7081 44.1545 44.7569 42.4787 47.5959L42.4761 47.6003L42.4734 47.6047C40.7669 50.4403 38.1759 52.7027 34.7764 54.4194C31.3197 56.165 26.9703 57 21.7926 57C17.993 57 14.2211 56.5004 10.4795 55.5032L10.472 55.5012ZM30.7968 23.2474C30.3549 23.1529 29.9019 23.0686 29.4379 22.9946L41.3836 9.25076V1.19828H4.17593V11.168H26.7909L15.8698 23.6685V31.8744H21.4889C24.9819 31.8744 27.513 32.4623 29.0823 33.6382C30.6516 34.8142 31.4363 36.4247 31.4363 38.4697C31.4363 40.6171 30.5504 42.3042 28.7786 43.5313C27.0068 44.7583 24.5769 45.3718 21.4889 45.3718C18.7553 45.3718 16.047 44.9373 13.364 44.0681C11.1063 43.3367 9.08155 42.3881 7.28984 41.2223C6.95232 41.0027 6.62307 40.7754 6.30208 40.5404L1.51824 50.0499C4.04937 51.8905 7.13736 53.3221 10.7822 54.3446C14.427 55.316 18.0972 55.8017 21.7926 55.8017C26.8549 55.8017 31.006 54.9837 34.2458 53.3476C37.4857 51.7116 39.8903 49.5898 41.4596 46.9823C43.0289 44.3237 43.8135 41.4862 43.8135 38.4697C43.8135 33.8172 42.143 30.0082 38.8019 27.0429C36.7405 25.2134 34.0722 23.9482 30.7968 23.2474Z" fill="url(#paint0_linear_302_223)"/>
<defs>
<linearGradient id="paint0_linear_302_223" x1="4.63235" y1="44.2169" x2="45.5638" y2="21.7309" gradientUnits="userSpaceOnUse">
<stop stop-color="#4071B3"/>
<stop offset="1" stop-color="#28BBC0"/>
</linearGradient>
</defs>
</svg>
