<svg width="45" height="57" viewBox="0 0 45 57" fill="none" xmlns="http://www.w3.org/2000/svg">
<path fill-rule="evenodd" clip-rule="evenodd" d="M10.4598 55.5007L10.4504 55.498C6.75644 54.4451 3.54694 52.9608 0.84222 51.0289L0 50.4273L5.95528 38.7519L7.07077 39.5702C8.98123 40.9718 11.1916 42.0936 13.7131 42.9281C16.2767 43.7598 18.857 44.1736 21.4578 44.1736C24.4009 44.1736 26.5616 43.5854 28.0639 42.543C29.5052 41.5429 30.2021 40.2027 30.2021 38.393C30.2021 37.2319 29.9084 36.2395 29.3399 35.3766C28.8432 34.6227 27.8708 33.9236 26.1897 33.4038L26.1852 33.4024L26.1807 33.401C24.5819 32.8925 22.2213 32.6125 19.0326 32.6125H4.16885L7.11369 0H41.741V12.3663H19.5413L18.8552 20.1695H21.9126C27.2551 20.1695 31.6594 20.9199 35.0543 22.4985C38.458 24.0073 41.0205 26.1229 42.637 28.8867C44.2198 31.5929 45 34.6447 45 38.0096C45 41.3899 44.162 44.5388 42.4885 47.4339L42.486 47.4383L42.4835 47.4426C40.781 50.3322 38.1693 52.6475 34.7266 54.4161L34.7201 54.4194C31.2699 56.165 26.9288 57 21.761 57C17.9685 57 14.2038 56.5004 10.4693 55.5032L10.4598 55.5007ZM34.5694 23.5918C31.3863 22.1091 27.1673 21.3678 21.9126 21.3678H17.561L18.4578 11.168H40.5568V1.19828H8.19463L5.4662 31.4142H19.0326C22.2663 31.4142 24.7673 31.6954 26.5357 32.2578C28.3547 32.8202 29.6179 33.6382 30.3252 34.7119C31.0326 35.7856 31.3863 37.0126 31.3863 38.393C31.3863 40.5915 30.5021 42.3042 28.7336 43.5313C26.9652 44.7583 24.5399 45.3718 21.4578 45.3718C18.7294 45.3718 16.0262 44.9373 13.3483 44.0681C11.1377 43.3368 9.14167 42.3884 7.36027 41.2227C7.02444 41.003 6.69625 40.7755 6.37568 40.5404L1.52514 50.0499C4.10199 51.8905 7.1841 53.3221 10.7715 54.3446C14.4094 55.316 18.0726 55.8017 21.761 55.8017C26.8136 55.8017 30.9568 54.9837 34.1905 53.3476C37.4747 51.6604 39.9 49.4875 41.4663 46.829C43.0326 44.1192 43.8158 41.1794 43.8158 38.0096C43.8158 34.8397 43.0832 32.0022 41.6179 29.497C40.1526 26.9918 37.8031 25.0234 34.5694 23.5918Z" fill="#D9D9D9"/>
</svg>
