<svg width="31" height="39" viewBox="0 0 31 39" fill="none" xmlns="http://www.w3.org/2000/svg">
<path fill-rule="evenodd" clip-rule="evenodd" d="M7.18152 37.9742L7.17503 37.9723C4.63884 37.2519 2.43526 36.2363 0.578252 34.9145L0 34.5029L4.08878 26.5144L4.85465 27.0744C6.16634 28.0333 7.68396 28.8009 9.41512 29.3718C11.1753 29.9409 12.9468 30.224 14.7325 30.224C16.7532 30.224 18.2367 29.8216 19.2681 29.1084C20.2577 28.4241 20.7361 27.5071 20.7361 26.2689C20.7361 25.4744 20.5345 24.7954 20.1442 24.205C19.8032 23.6892 19.1356 23.2109 17.9813 22.8552L17.9782 22.8543L17.9751 22.8533C16.8775 22.5054 15.2567 22.3138 13.0674 22.3138H2.86225L4.88411 0H28.6586V8.46115H13.4167L12.9456 13.8002H15.0447C18.7128 13.8002 21.7367 14.3136 24.0676 15.3937C26.4045 16.426 28.1639 17.8736 29.2737 19.7646C30.3605 21.6162 30.8961 23.7043 30.8961 26.0066C30.8961 28.3194 30.3208 30.4739 29.1718 32.4548L29.1701 32.4578L29.1683 32.4607C27.9994 34.4379 26.2063 36.0219 23.8426 37.2321L23.8381 37.2343C21.4693 38.4287 18.4888 39 14.9407 39C12.3368 39 9.75208 38.6582 7.18803 37.9759L7.18152 37.9742ZM23.7347 16.1418C21.5492 15.1273 18.6525 14.6201 15.0447 14.6201H12.057L12.6728 7.64127H27.8455V0.819879H5.62627L3.75299 21.4939H13.0674C15.2876 21.4939 17.0047 21.6863 18.2189 22.0711C19.4678 22.4559 20.335 23.0156 20.8207 23.7503C21.3064 24.4849 21.5492 25.3244 21.5492 26.2689C21.5492 27.7731 20.9421 28.945 19.7279 29.7846C18.5138 30.6241 16.8486 31.0439 14.7325 31.0439C12.8592 31.0439 11.0033 30.7465 9.1647 30.1519C7.64692 29.6515 6.27649 29.0026 5.05341 28.205C4.82284 28.0547 4.59751 27.899 4.37741 27.7381L1.04713 34.2447C2.81634 35.504 4.93246 36.4835 7.39548 37.1831C9.8932 37.8478 12.4083 38.1801 14.9407 38.1801C18.4097 38.1801 21.2543 37.6204 23.4745 36.501C25.7294 35.3466 27.3945 33.8599 28.4699 32.0409C29.5453 30.1868 30.083 28.1754 30.083 26.0066C30.083 23.8377 29.58 21.8962 28.574 20.1821C27.568 18.468 25.9549 17.1213 23.7347 16.1418Z" fill="url(#paint0_linear_302_351)"/>
<defs>
<linearGradient id="paint0_linear_302_351" x1="3.18048" y1="30.2537" x2="31.2381" y2="14.7867" gradientUnits="userSpaceOnUse">
<stop stop-color="#4071B3"/>
<stop offset="1" stop-color="#28BBC0"/>
</linearGradient>
</defs>
</svg>
