<svg width="23" height="23" viewBox="0 0 23 23" fill="none" xmlns="http://www.w3.org/2000/svg">
<circle cx="11.5" cy="11.5" r="11.5" fill="white"/>
<path fill-rule="evenodd" clip-rule="evenodd" d="M2 11.7349L10.131 7.8696C9.9345 7.43574 9.68443 7.40706 9.5451 6.93735C10.3203 6.57879 10.5418 6.93735 11.0063 7.41064C12.7318 7.10946 14.9074 5.14814 16.5115 7.13097C17.0548 7.87031 17.4869 8.68578 17.794 9.55124C18.0619 10.3401 18.3656 11.5986 17.6832 12.3014C17.6405 12.3569 17.587 12.4032 17.5261 12.4376L17.919 9.98509C16.8008 10.3938 17.4367 11.4946 17.4367 12.5667C16.9152 13.1476 15.2039 14.0978 14.3322 14.3595C14.3322 15.1519 14.568 15.7364 13.7106 15.7937L13.4641 14.84L5.36172 18.6765C5.59393 19.114 7.30515 20.1646 7.9089 20.3116C8.14826 20.1 15.1789 16.726 15.7862 16.5395C15.4379 17.0603 15.0573 17.5584 14.6466 18.0311C14.0523 18.3696 13.4392 18.6736 12.8104 18.9419C12.128 19.2574 9.50938 20.5841 9.03066 20.6952C9.50682 20.8576 10.0012 20.96 10.5025 21H12.128C13.6658 20.8844 15.155 20.4079 16.4757 19.6088C18.3821 18.4257 19.8106 16.6046 20.5091 14.4671C21.7416 10.7775 20.5912 6.99113 17.7547 4.34497C16.8965 3.62076 15.9326 3.03305 14.8967 2.60238C14.7216 2.88205 14.2751 3.01831 13.9643 3.1689L7.43376 6.24892C7.53485 5.95992 7.67682 5.68701 7.85532 5.43857C8.11253 4.97245 8.01608 4.97603 8.47693 4.76807C9.19143 4.44537 13.3855 2.51991 13.7142 2.25816C13.236 2.10161 12.738 2.01467 12.2352 2H11.1634C10.3921 2.02694 9.62678 2.14734 8.88419 2.35856C4.62578 3.71032 2 7.14531 2 11.7349Z" fill="url(#paint0_linear_305_900)"/>
<path fill-rule="evenodd" clip-rule="evenodd" d="M2 11.7349C2.05195 14.1122 2.99312 16.3828 4.6365 18.0957C4.87228 18.3323 5.01161 18.5941 5.351 18.6765L13.4534 14.8436L13.6999 15.7973C14.5573 15.7328 14.3394 15.1483 14.3215 14.3631C15.1932 14.1049 16.9044 13.1547 17.426 12.5703C17.426 11.4946 16.8008 10.3974 17.9083 9.98868L17.5153 12.4412C17.5763 12.4068 17.6298 12.3605 17.6725 12.305C18.3549 11.5878 18.0512 10.3436 17.7833 9.55482C17.4784 8.68978 17.0487 7.87433 16.5079 7.13455C14.9038 5.14456 12.7282 7.10946 11.0063 7.41064C10.5418 6.93735 10.3203 6.57879 9.5451 6.93735C9.68443 7.3963 9.92379 7.42499 10.131 7.85884L2 11.7349Z" fill="#FDFEFF"/>
<path fill-rule="evenodd" clip-rule="evenodd" d="M10.2918 9.72693C11.76 12.1759 11.1492 10.444 12.0959 13.6388H14.1358C14.493 11.6488 12.5996 8.61899 11.535 8.1923C11.0634 8.67635 10.6847 9.23571 10.2918 9.72334" fill="url(#paint1_linear_305_900)"/>
<path fill-rule="evenodd" clip-rule="evenodd" d="M5.79041 17.3535C6.0095 16.9972 6.20061 16.6244 6.36201 16.2383C6.60137 15.7149 6.34415 15.6109 6.08336 15.1878C5.5189 14.2627 5.42959 13.7535 5.01161 12.7388C4.49656 12.5129 3.94917 12.3701 3.3897 12.3157C3.46472 14.4456 4.71152 16.5861 5.79041 17.3678" fill="url(#paint2_linear_305_900)"/>
<path fill-rule="evenodd" clip-rule="evenodd" d="M7.9089 20.3116C8.26294 20.4919 8.6406 20.621 9.03066 20.6952C9.50938 20.5841 12.128 19.261 12.8104 18.9419C13.4392 18.6736 14.0523 18.3696 14.6466 18.0311C15.0573 17.5584 15.4379 17.0603 15.7862 16.5395C15.1789 16.7367 8.14826 20.1 7.9089 20.3116Z" fill="#FDFEFF"/>
<path fill-rule="evenodd" clip-rule="evenodd" d="M14.9003 2.58445C14.5146 2.42414 14.1136 2.30399 13.7035 2.22589C13.3748 2.50557 9.19143 4.43103 8.46621 4.7358C8.00536 4.94376 8.10896 4.94018 7.8446 5.4063C7.66709 5.66535 7.52865 5.94929 7.43376 6.24892L13.9678 3.15097C14.2787 3.00038 14.7252 2.86413 14.9003 2.58445Z" fill="#FDFEFF"/>
<path fill-rule="evenodd" clip-rule="evenodd" d="M7.34445 16.916C7.98392 16.5575 9.17714 16.0376 9.92021 15.6969L12.2423 14.5926C12.3014 14.5611 12.3586 14.5264 12.4138 14.4886C12.4794 14.4504 12.5385 14.402 12.5889 14.3452C11.8208 14.2591 11.6136 14.087 10.9491 14.4061L8.14826 15.74C7.89905 15.8135 7.68225 15.9701 7.53354 16.1839C7.38484 16.3976 7.31311 16.6559 7.33016 16.916" fill="url(#paint3_linear_305_900)"/>
<path fill-rule="evenodd" clip-rule="evenodd" d="M4.66865 11.24C5.16523 11.6703 5.60465 11.5986 6.09765 11.3476L9.00208 9.95999C9.44849 9.68141 9.78058 9.25141 9.93808 8.74807L4.66865 11.24Z" fill="url(#paint4_linear_305_900)"/>
<path fill-rule="evenodd" clip-rule="evenodd" d="M16.7615 7.70466L14.4823 6.41027L15.3718 7.23854C15.5423 7.43186 15.7605 7.57672 16.0044 7.65854C16.2484 7.74037 16.5095 7.75627 16.7615 7.70466Z" fill="url(#paint5_linear_305_900)"/>
<defs>
<linearGradient id="paint0_linear_305_900" x1="3.95588" y1="16.739" x2="19.114" y2="6.19118" gradientUnits="userSpaceOnUse">
<stop stop-color="#4071B3"/>
<stop offset="1" stop-color="#28BBC0"/>
</linearGradient>
<linearGradient id="paint1_linear_305_900" x1="3.95588" y1="16.739" x2="19.114" y2="6.19118" gradientUnits="userSpaceOnUse">
<stop stop-color="#4071B3"/>
<stop offset="1" stop-color="#28BBC0"/>
</linearGradient>
<linearGradient id="paint2_linear_305_900" x1="3.95588" y1="16.739" x2="19.114" y2="6.19118" gradientUnits="userSpaceOnUse">
<stop stop-color="#4071B3"/>
<stop offset="1" stop-color="#28BBC0"/>
</linearGradient>
<linearGradient id="paint3_linear_305_900" x1="3.95588" y1="16.739" x2="19.114" y2="6.19118" gradientUnits="userSpaceOnUse">
<stop stop-color="#4071B3"/>
<stop offset="1" stop-color="#28BBC0"/>
</linearGradient>
<linearGradient id="paint4_linear_305_900" x1="3.95588" y1="16.739" x2="19.114" y2="6.19118" gradientUnits="userSpaceOnUse">
<stop stop-color="#4071B3"/>
<stop offset="1" stop-color="#28BBC0"/>
</linearGradient>
<linearGradient id="paint5_linear_305_900" x1="3.95588" y1="16.739" x2="19.114" y2="6.19118" gradientUnits="userSpaceOnUse">
<stop stop-color="#4071B3"/>
<stop offset="1" stop-color="#28BBC0"/>
</linearGradient>
</defs>
</svg>
