<svg width="20" height="20" viewBox="0 0 20 20" fill="none" xmlns="http://www.w3.org/2000/svg">
<circle cx="10" cy="10" r="10" fill="white"/>
<path fill-rule="evenodd" clip-rule="evenodd" d="M2 10.1978L8.84715 6.94282C8.68169 6.57747 8.4711 6.55331 8.35377 6.15777C9.0066 5.85582 9.19312 6.15777 9.58421 6.55633C11.0373 6.3027 12.8694 4.65107 14.2202 6.32082C14.6777 6.94342 15.0416 7.63013 15.3002 8.35894C15.5258 9.02321 15.7815 10.083 15.2069 10.6748C15.1709 10.7216 15.1259 10.7606 15.0746 10.7896L15.4055 8.72429C14.4639 9.0685 14.9994 9.99547 14.9994 10.8983C14.5601 11.3874 13.1191 12.1876 12.385 12.408C12.385 13.0753 12.5836 13.5675 11.8616 13.6158L11.654 12.8126L4.83092 16.0434C5.02647 16.4118 6.4675 17.2965 6.97592 17.4203C7.17748 17.2421 13.098 14.4008 13.6095 14.2438C13.3162 14.6823 12.9956 15.1018 12.6498 15.4999C12.1493 15.7849 11.633 16.041 11.1035 16.2668C10.5289 16.5326 8.32369 17.6497 7.92056 17.7433C8.32153 17.8801 8.73788 17.9663 9.16003 18H10.5289C11.8238 17.9026 13.0779 17.5014 14.1901 16.8285C15.7954 15.8322 16.9984 14.2986 17.5866 12.4986C18.6245 9.39158 17.6558 6.20306 15.2671 3.97471C14.5444 3.36485 13.7327 2.86994 12.8604 2.50727C12.713 2.74278 12.3369 2.85752 12.0752 2.98434L6.5758 5.57803C6.66092 5.33467 6.78048 5.10485 6.93079 4.89564C7.1474 4.50311 7.06617 4.50613 7.45426 4.33101C8.05594 4.05926 11.5878 2.43782 11.8646 2.2174C11.4619 2.08556 11.0425 2.01235 10.6191 2H9.71658C9.06701 2.02269 8.42255 2.12407 7.79722 2.30194C4.21119 3.44027 2 6.33289 2 10.1978Z" fill="#4071B3"/>
<path fill-rule="evenodd" clip-rule="evenodd" d="M2 10.1978C2.04375 12.1997 2.83631 14.1119 4.22021 15.5543C4.41877 15.7535 4.53609 15.974 4.82189 16.0434L11.645 12.8156L11.8526 13.6188C12.5746 13.5644 12.3911 13.0723 12.376 12.411C13.1101 12.1936 14.5511 11.3935 14.9903 10.9013C14.9903 9.99547 14.4639 9.07152 15.3965 8.72731L15.0655 10.7926C15.1169 10.7636 15.1619 10.7246 15.1979 10.6779C15.7725 10.074 15.5168 9.02623 15.2912 8.36196C15.0345 7.6335 14.6726 6.94681 14.2172 6.32383C12.8664 4.64805 11.0343 6.3027 9.58421 6.55633C9.19312 6.15777 9.0066 5.85582 8.35377 6.15777C8.4711 6.54425 8.67266 6.56841 8.84715 6.93376L2 10.1978Z" fill="#FDFEFF"/>
<path fill-rule="evenodd" clip-rule="evenodd" d="M8.98253 8.50689C10.219 10.5692 9.70455 9.11078 10.5018 11.8011H12.2196C12.5204 10.1253 10.926 7.57388 10.0295 7.21457C9.63235 7.62219 9.31346 8.09323 8.98253 8.50387" fill="#4071B3"/>
<path fill-rule="evenodd" clip-rule="evenodd" d="M5.19193 14.9292C5.37642 14.6292 5.53736 14.3153 5.67327 13.9902C5.87484 13.5493 5.65823 13.4618 5.43862 13.1055C4.96329 12.3265 4.88808 11.8977 4.53609 11.0432C4.10237 10.853 3.64141 10.7327 3.17027 10.6869C3.23345 12.4805 4.28339 14.2831 5.19193 14.9413" fill="#4071B3"/>
<path fill-rule="evenodd" clip-rule="evenodd" d="M6.97592 17.4203C7.27405 17.5721 7.59208 17.6809 7.92056 17.7433C8.32369 17.6497 10.5289 16.5356 11.1035 16.2668C11.633 16.041 12.1493 15.7849 12.6498 15.4999C12.9956 15.1018 13.3162 14.6823 13.6095 14.2438C13.098 14.4099 7.17748 17.2421 6.97592 17.4203Z" fill="#FDFEFF"/>
<path fill-rule="evenodd" clip-rule="evenodd" d="M12.8634 2.49217C12.5386 2.35717 12.2009 2.25599 11.8556 2.19022C11.5788 2.42574 8.05594 4.04718 7.44523 4.30383C7.05714 4.47896 7.14439 4.47594 6.92177 4.86847C6.77228 5.08661 6.6557 5.32571 6.5758 5.57803L12.0782 2.96924C12.3399 2.84242 12.716 2.72768 12.8634 2.49217Z" fill="#FDFEFF"/>
<path fill-rule="evenodd" clip-rule="evenodd" d="M6.50059 14.5609C7.03909 14.2589 8.0439 13.8211 8.66965 13.5343L10.6251 12.6043C10.6748 12.5778 10.723 12.5485 10.7695 12.5167C10.8247 12.4845 10.8745 12.4438 10.9169 12.3959C10.2701 12.3235 10.0956 12.1785 9.53608 12.4473L7.17748 13.5705C6.96762 13.6324 6.78505 13.7643 6.65982 13.9443C6.5346 14.1243 6.47419 14.3418 6.48855 14.5609" fill="#4071B3"/>
<path fill-rule="evenodd" clip-rule="evenodd" d="M4.24729 9.78109C4.66545 10.1434 5.03549 10.083 5.45065 9.87167L7.89649 8.70315C8.27241 8.46855 8.55206 8.10645 8.6847 7.68258L4.24729 9.78109Z" fill="#4071B3"/>
<path fill-rule="evenodd" clip-rule="evenodd" d="M14.4308 6.80393L12.5114 5.71391L13.2605 6.4114C13.404 6.5742 13.5878 6.69618 13.7932 6.76509C13.9986 6.83399 14.2185 6.84739 14.4308 6.80393Z" fill="#4071B3"/>
</svg>
