<svg width="133" height="31" viewBox="0 0 133 31" fill="none" xmlns="http://www.w3.org/2000/svg">
<path d="M131.033 21.8099C130.367 20.6226 129.637 19.4057 128.861 18.2482C128.093 17.0903 127.263 15.9765 126.374 14.912V21.8099H124.039V11.2435H125.942C126.275 11.5818 126.637 11.9914 127.04 12.4782C127.442 12.965 127.845 13.4873 128.26 14.0394C128.674 14.5915 129.089 15.1673 129.497 15.7609C129.906 16.3545 130.291 16.9481 130.665 17.4765V11.2435H133V21.8099H131.033ZM119.328 11.2435H121.663V21.8099H119.328V11.2435ZM115.194 21.8099C114.984 21.4656 114.739 21.0916 114.453 20.6939C114.167 20.2961 113.869 19.8925 113.531 19.5066C113.192 19.1208 112.853 18.7112 112.491 18.3194C112.155 17.9652 111.794 17.6359 111.411 17.334V21.8099H109.076V11.2435H111.411V15.2148C112.011 14.5737 112.622 13.9029 113.245 13.2024L114.961 11.2435H117.74C117.028 12.0983 116.321 12.9234 115.603 13.7129C114.885 14.5024 114.132 15.2979 113.344 16.0874C114.224 16.8403 115.03 17.6793 115.749 18.5925C116.56 19.6108 117.305 20.6815 117.979 21.798L115.194 21.8099ZM102.252 13.149C102.084 13.149 101.933 13.149 101.796 13.149L101.411 13.1787V16.0636H102.071C102.719 16.1105 103.369 15.9943 103.962 15.7253C104.158 15.6119 104.317 15.4434 104.421 15.2401C104.524 15.0369 104.568 14.8075 104.546 14.5796C104.56 14.3585 104.512 14.1379 104.409 13.9428C104.306 13.7477 104.151 13.5858 103.962 13.4755C103.428 13.2235 102.84 13.1113 102.252 13.149ZM102.118 11.1247C103.368 11.0442 104.614 11.3372 105.702 11.9677C106.114 12.26 106.446 12.6557 106.664 13.1164C106.881 13.5772 106.978 14.0873 106.945 14.5974C106.969 15.2303 106.793 15.8543 106.443 16.3783C106.07 16.8765 105.569 17.2606 104.996 17.4883C105.206 17.7495 105.428 18.0819 105.655 18.3966C105.883 18.7112 106.111 19.0911 106.338 19.4591C106.566 19.8272 106.776 20.219 106.986 20.6464C107.197 21.0738 107.395 21.4418 107.57 21.8336H104.961L104.377 20.777C104.178 20.4208 103.98 20.0765 103.793 19.7441C103.606 19.4116 103.384 19.0911 103.209 18.7883C103.034 18.4856 102.806 18.1947 102.625 17.9751H101.458V21.8336H99.1227V11.3978C99.6454 11.2947 100.174 11.2234 100.705 11.1841C101.201 11.1425 101.686 11.1247 102.118 11.1247ZM92.4267 13.6357C92.3741 13.7901 92.2982 13.9978 92.1931 14.265C92.0881 14.5321 91.983 14.8289 91.8546 15.1792L91.4225 16.3011C91.2649 16.7107 91.1015 17.15 90.938 17.607H93.9095C93.7519 17.15 93.6001 16.7107 93.4483 16.2952C93.2965 15.8796 93.1564 15.4938 93.0221 15.1495C92.8879 14.8052 92.7711 14.4965 92.6719 14.2353C92.5726 13.9741 92.485 13.7841 92.4267 13.6357ZM95.2347 21.8099C95.1179 21.4418 94.9953 21.0619 94.8611 20.6761L94.4641 19.5185H90.4068C90.2783 19.9043 90.144 20.2961 90.0098 20.7057C89.8755 21.1153 89.7587 21.4656 89.642 21.8336H87.2134C87.6104 20.6939 87.9782 19.6432 88.3285 18.6756C88.6787 17.708 89.0232 16.7997 89.3618 15.9449C89.7004 15.0901 90.0273 14.2828 90.3542 13.517C90.6811 12.7513 91.0139 11.9974 91.3642 11.2672H93.5826C93.927 11.9974 94.2598 12.7513 94.5925 13.517C94.9253 14.2828 95.258 15.096 95.5908 15.9449C95.9236 16.7938 96.2738 17.7258 96.6241 18.6756C96.9744 19.6253 97.348 20.6939 97.7391 21.8336L95.2347 21.8099ZM82.8934 13.149C82.7241 13.149 82.5548 13.149 82.3913 13.149L81.9652 13.1787V16.2417H82.7007C83.3269 16.2766 83.9525 16.1628 84.528 15.9093C84.7375 15.7822 84.9066 15.5966 85.0153 15.3745C85.124 15.1525 85.1676 14.9033 85.141 14.6568C85.1495 14.4038 85.0953 14.1527 84.9834 13.9266C84.8807 13.7313 84.7245 13.5705 84.5338 13.4636C84.3148 13.335 84.0726 13.2522 83.8216 13.2202C83.5146 13.1706 83.2042 13.1468 82.8934 13.149ZM82.7416 11.1247C83.9847 11.0441 85.224 11.3329 86.3086 11.9558C86.7344 12.2567 87.0748 12.6665 87.2951 13.1438C87.5155 13.6212 87.6081 14.1492 87.5637 14.6746C87.608 15.2048 87.5149 15.7375 87.2936 16.2198C87.0724 16.702 86.7307 17.1169 86.3027 17.423C85.2096 18.0526 83.9607 18.3474 82.7066 18.2719H81.971V21.8336H79.6358V11.3978C80.1702 11.2936 80.7102 11.2223 81.2529 11.1841C81.8192 11.1425 82.3096 11.1247 82.7474 11.1247H82.7416ZM77.6743 16.5207C77.6911 17.3306 77.5564 18.1364 77.2773 18.8952C77.0404 19.543 76.6702 20.132 76.1915 20.6226C75.7254 21.0789 75.1678 21.4272 74.5569 21.6436C73.8999 21.8847 73.2062 22.0053 72.5078 21.9998C71.8228 22.0038 71.1427 21.8832 70.4995 21.6436C69.8978 21.4216 69.3474 21.076 68.8824 20.6286C68.3946 20.1408 68.0162 19.5515 67.7732 18.9011C67.492 18.1428 67.3553 17.337 67.3704 16.5267C67.3563 15.7154 67.4971 14.909 67.7849 14.1522C68.0294 13.4984 68.4029 12.9024 68.8824 12.401C69.3544 11.9366 69.9173 11.5785 70.5346 11.3503C71.1649 11.1166 71.831 10.998 72.5019 11.0001C73.1882 10.9965 73.8699 11.115 74.516 11.3503C75.1331 11.5751 75.6949 11.9336 76.1623 12.401C76.6471 12.8936 77.0249 13.4841 77.2715 14.1344C77.5559 14.8961 77.6946 15.7061 77.6802 16.5207H77.6743ZM69.7465 16.5207C69.7414 16.9945 69.8044 17.4664 69.9333 17.9217C70.0437 18.3123 70.2282 18.6773 70.4762 18.9961C70.7069 19.2907 71.0003 19.5282 71.3344 19.6906C71.7032 19.852 72.1004 19.9352 72.5019 19.9352C72.9034 19.9352 73.3007 19.852 73.6695 19.6906C74.0089 19.5315 74.3069 19.2937 74.5394 18.9961C74.7852 18.6759 74.9694 18.3114 75.0823 17.9217C75.2112 17.4664 75.2741 16.9945 75.2691 16.5207C75.274 16.0431 75.2111 15.5673 75.0823 15.1079C74.972 14.7154 74.7876 14.3484 74.5394 14.0275C74.3101 13.7267 74.0113 13.4881 73.6695 13.333C73.3012 13.1696 72.9038 13.0852 72.5019 13.0852C72.1001 13.0852 71.7026 13.1696 71.3344 13.333C71 13.4977 70.7066 13.7372 70.4762 14.0335C70.2269 14.3559 70.0425 14.725 69.9333 15.1198C69.8066 15.5754 69.7456 16.0473 69.7523 16.5207H69.7465ZM64.2121 21.8099C63.9202 21.2162 63.6283 20.6226 63.2489 20.029C62.9375 19.4636 62.5438 18.9493 62.0813 18.5034C61.9412 18.6578 61.7661 18.8774 61.5501 19.1564C61.3341 19.4354 61.1239 19.75 60.9079 20.0468C60.6919 20.3436 60.4934 20.6879 60.3241 21.0263C60.1548 21.3646 59.9972 21.6199 59.9038 21.8217H57.2067C57.6718 20.944 58.1823 20.0919 58.7362 19.2692C59.3317 18.3906 59.9972 17.4586 60.7327 16.4732L57.3409 11.2613H60.1723L62.1514 14.3184L64.1771 11.2613H66.845L63.4707 16.3604C64.2598 17.3486 64.9908 18.3833 65.6599 19.4591C66.2437 20.3971 66.6816 21.1866 67.0085 21.8336L64.2121 21.8099ZM51.036 13.6357C50.9835 13.7901 50.9076 13.9978 50.8083 14.265C50.7091 14.5321 50.5923 14.8289 50.4639 15.1792L50.0319 16.3011C49.8743 16.7107 49.7166 17.15 49.5473 17.607H52.5364C52.3787 17.15 52.2269 16.7107 52.0752 16.2952C51.9234 15.8796 51.7833 15.4938 51.649 15.1495C51.5147 14.8052 51.4038 14.4965 51.2987 14.2353C51.1936 13.9741 51.1002 13.7841 51.036 13.6357ZM53.8499 21.8099C53.7273 21.4418 53.6047 21.0619 53.4704 20.6761C53.3361 20.2902 53.2077 19.9043 53.0734 19.5185H49.0336L48.6425 20.7057C48.5082 21.0916 48.3856 21.4656 48.2747 21.8336H45.8286C46.2178 20.6939 46.5875 19.6412 46.9378 18.6756C47.2939 17.708 47.6325 16.7997 47.9711 15.9449C48.3097 15.0901 48.6366 14.2828 48.9636 13.517C49.2905 12.7513 49.6291 11.9974 49.9794 11.2672H52.1919C52.5364 11.9974 52.8749 12.7513 53.2019 13.517C53.5288 14.2828 53.8674 15.096 54.206 15.9449C54.5446 16.7938 54.8832 17.7258 55.2335 18.6756C55.5837 19.6253 55.9574 20.6939 56.3485 21.8336L53.8499 21.8099ZM46.6051 11.2435V13.2736H43.4759V21.8099H41.1408V13.2736H38V11.2435H46.6051Z" fill="url(#paint0_linear_302_261)"/>
<path fill-rule="evenodd" clip-rule="evenodd" d="M0 15.8832L13.2664 9.57671C12.9458 8.86884 12.5378 8.82204 12.3104 8.05567C13.5753 7.47065 13.9367 8.05567 14.6944 8.82789C17.5097 8.33648 21.0595 5.13644 23.6766 8.37158C24.5631 9.57787 25.2681 10.9084 25.7691 12.3204C26.2063 13.6075 26.7017 15.6609 25.5884 16.8075C25.5187 16.8981 25.4315 16.9737 25.332 17.0298L25.9731 13.0283C24.1487 13.6952 25.1863 15.4912 25.1863 17.2404C24.3353 18.1881 21.5433 19.7384 20.121 20.1655C20.121 21.4584 20.5057 22.412 19.1068 22.5056L18.7046 20.9494L5.48491 27.2091C5.86378 27.9228 8.65577 29.6369 9.64084 29.8768C10.0314 29.5316 21.5025 24.0266 22.4934 23.7224C21.9251 24.572 21.304 25.3848 20.634 26.1561C19.6643 26.7082 18.664 27.2044 17.638 27.642C16.5247 28.1568 12.2521 30.3214 11.4711 30.5027C12.248 30.7676 13.0546 30.9347 13.8726 31H16.5247C19.0337 30.8114 21.4635 30.0339 23.6183 28.7301C26.7286 26.7998 29.0594 23.8286 30.199 20.341C32.21 14.3212 30.3331 8.14342 25.705 3.826C24.3048 2.6444 22.7321 1.6855 21.042 0.982827C20.7564 1.43914 20.0278 1.66145 19.5207 1.90715L8.86561 6.93244C9.03054 6.46092 9.26218 6.01565 9.55341 5.6103C9.97308 4.84978 9.81571 4.85563 10.5676 4.51632C11.7334 3.98981 18.5764 0.848273 19.1126 0.421212C18.3325 0.165782 17.5198 0.023935 16.6995 0H14.9509C13.6923 0.0439615 12.4437 0.24039 11.2321 0.585016C4.28417 2.79053 0 8.39498 0 15.8832Z" fill="url(#paint1_linear_302_261)"/>
<path fill-rule="evenodd" clip-rule="evenodd" d="M0 15.8832C0.0847583 19.7619 1.62036 23.4667 4.30166 26.2614C4.68636 26.6475 4.91368 27.0745 5.46742 27.2091L18.6871 20.9553L19.0893 22.5114C20.4882 22.4061 20.1327 21.4525 20.1035 20.1714C21.5258 19.7501 24.3178 18.1998 25.1688 17.2463C25.1688 15.4912 24.1487 13.7011 25.9557 13.0342L25.3145 17.0357C25.414 16.9796 25.5012 16.904 25.571 16.8134C26.6843 15.6433 26.1888 13.6133 25.7517 12.3263C25.2543 10.9149 24.5532 9.58443 23.6708 8.37743C21.0536 5.13059 17.5039 8.33648 14.6944 8.82789C13.9367 8.05567 13.5753 7.47065 12.3104 8.05567C12.5378 8.80449 12.9283 8.85129 13.2664 9.55916L0 15.8832Z" fill="#FDFEFF"/>
<path fill-rule="evenodd" clip-rule="evenodd" d="M13.5287 12.6071C15.9243 16.6028 14.9276 13.7771 16.4722 18.9896H19.8004C20.3833 15.7428 17.2941 10.7994 15.5571 10.1032C14.7877 10.893 14.1698 11.8056 13.5287 12.6012" fill="url(#paint2_linear_302_261)"/>
<path fill-rule="evenodd" clip-rule="evenodd" d="M6.18436 25.0504C6.54181 24.4691 6.85363 23.8608 7.11697 23.231C7.5075 22.3769 7.08782 22.2072 6.66232 21.5169C5.74137 20.0075 5.59565 19.1768 4.91368 17.5212C4.07334 17.1526 3.18023 16.9196 2.2674 16.8309C2.38981 20.3059 4.42406 23.7985 6.18436 25.0738" fill="url(#paint3_linear_302_261)"/>
<path fill-rule="evenodd" clip-rule="evenodd" d="M9.64084 29.8768C10.2185 30.171 10.8347 30.3817 11.4711 30.5027C12.2521 30.3214 16.5247 28.1627 17.638 27.642C18.664 27.2044 19.6643 26.7082 20.634 26.1561C21.304 25.3848 21.9251 24.572 22.4934 23.7224C21.5025 24.0442 10.0314 29.5316 9.64084 29.8768Z" fill="#FDFEFF"/>
<path fill-rule="evenodd" clip-rule="evenodd" d="M21.0478 0.953576C20.4186 0.692011 19.7643 0.495978 19.0952 0.36856C18.5589 0.824873 11.7334 3.96641 10.5501 4.46367C9.79822 4.80298 9.96725 4.79713 9.53592 5.55765C9.2463 5.98031 9.02043 6.44357 8.86561 6.93244L19.5265 1.8779C20.0336 1.63219 20.7622 1.40989 21.0478 0.953576Z" fill="#FDFEFF"/>
<path fill-rule="evenodd" clip-rule="evenodd" d="M8.71989 24.3367C9.76324 23.7516 11.7101 22.9034 12.9225 22.3476L16.7112 20.5458C16.8075 20.4944 16.9009 20.4378 16.991 20.3761C17.0979 20.3138 17.1943 20.2348 17.2766 20.1421C16.0234 20.0017 15.6853 19.7209 14.6012 20.2416L10.0314 22.4178C9.62477 22.5379 9.27103 22.7933 9.02841 23.1421C8.78579 23.4909 8.66875 23.9122 8.69658 24.3367" fill="url(#paint4_linear_302_261)"/>
<path fill-rule="evenodd" clip-rule="evenodd" d="M4.35412 15.0759C5.16432 15.7779 5.88126 15.6609 6.68564 15.2514L11.4245 12.9874C12.1528 12.5328 12.6946 11.8313 12.9516 11.01L4.35412 15.0759Z" fill="url(#paint5_linear_302_261)"/>
<path fill-rule="evenodd" clip-rule="evenodd" d="M24.0846 9.3076L20.3658 7.1957L21.8172 8.54708C22.0953 8.8625 22.4513 9.09885 22.8494 9.23236C23.2474 9.36586 23.6734 9.39182 24.0846 9.3076Z" fill="url(#paint6_linear_302_261)"/>
<defs>
<linearGradient id="paint0_linear_302_261" x1="47.7794" y1="19.5331" x2="50.8102" y2="1.3193" gradientUnits="userSpaceOnUse">
<stop stop-color="#4071B3"/>
<stop offset="1" stop-color="#28BBC0"/>
</linearGradient>
<linearGradient id="paint1_linear_302_261" x1="3.19118" y1="24.0478" x2="27.9228" y2="6.83823" gradientUnits="userSpaceOnUse">
<stop stop-color="#4071B3"/>
<stop offset="1" stop-color="#28BBC0"/>
</linearGradient>
<linearGradient id="paint2_linear_302_261" x1="3.19118" y1="24.0478" x2="27.9228" y2="6.83823" gradientUnits="userSpaceOnUse">
<stop stop-color="#4071B3"/>
<stop offset="1" stop-color="#28BBC0"/>
</linearGradient>
<linearGradient id="paint3_linear_302_261" x1="3.19118" y1="24.0478" x2="27.9228" y2="6.83823" gradientUnits="userSpaceOnUse">
<stop stop-color="#4071B3"/>
<stop offset="1" stop-color="#28BBC0"/>
</linearGradient>
<linearGradient id="paint4_linear_302_261" x1="3.19118" y1="24.0478" x2="27.9228" y2="6.83823" gradientUnits="userSpaceOnUse">
<stop stop-color="#4071B3"/>
<stop offset="1" stop-color="#28BBC0"/>
</linearGradient>
<linearGradient id="paint5_linear_302_261" x1="3.19118" y1="24.0478" x2="27.9228" y2="6.83823" gradientUnits="userSpaceOnUse">
<stop stop-color="#4071B3"/>
<stop offset="1" stop-color="#28BBC0"/>
</linearGradient>
<linearGradient id="paint6_linear_302_261" x1="3.19118" y1="24.0478" x2="27.9228" y2="6.83823" gradientUnits="userSpaceOnUse">
<stop stop-color="#4071B3"/>
<stop offset="1" stop-color="#28BBC0"/>
</linearGradient>
</defs>
</svg>
